<svg width="40" height="40" viewBox="0 0 40 40" fill="none" xmlns="http://www.w3.org/2000/svg">
<g clip-path="url(#clip0_102_2)">
<path d="M19.9998 40C31.0455 40 39.9998 31.0457 39.9998 20C39.9998 8.95431 31.0455 0 19.9998 0C8.95407 0 -0.000244141 8.95431 -0.000244141 20C-0.000244141 31.0457 8.95407 40 19.9998 40Z" fill="#FF0000"/>
<mask id="mask0_102_2" style="mask-type:alpha" maskUnits="userSpaceOnUse" x="-1" y="0" width="41" height="40">
<path d="M19.9998 40C31.0455 40 39.9998 31.0457 39.9998 20C39.9998 8.95431 31.0455 0 19.9998 0C8.95407 0 -0.000244141 8.95431 -0.000244141 20C-0.000244141 31.0457 8.95407 40 19.9998 40Z" fill="#D80027"/>
</mask>
<g mask="url(#mask0_102_2)">
<rect y="19" width="41" height="24" fill="white"/>
</g>
</g>
<defs>
<clipPath id="clip0_102_2">
<rect width="40" height="40" fill="white"/>
</clipPath>
</defs>
</svg>
